<?xml version="1.0" encoding="UTF-8" standalone="no"?>
<svg
   xmlns:dc="http://purl.org/dc/elements/1.1/"
   xmlns:cc="http://creativecommons.org/ns#"
   xmlns:rdf="http://www.w3.org/1999/02/22-rdf-syntax-ns#"
   xmlns:svg="http://www.w3.org/2000/svg"
   xmlns="http://www.w3.org/2000/svg"
   xmlns:sodipodi="http://sodipodi.sourceforge.net/DTD/sodipodi-0.dtd"
   xmlns:inkscape="http://www.inkscape.org/namespaces/inkscape"
   version="1.1"
   id="Layer_1"
   x="0px"
   y="0px"
   viewBox="0 0 28 28"
   enable-background="new 0 0 28 28"
   xml:space="preserve"
   sodipodi:docname="twitter.svg"
   inkscape:version="0.92pre2 15127"><metadata
     id="metadata9"><rdf:RDF><cc:Work
         rdf:about=""><dc:format>image/svg+xml</dc:format><dc:type
           rdf:resource="http://purl.org/dc/dcmitype/StillImage" /></cc:Work></rdf:RDF></metadata><defs
     id="defs7" /><sodipodi:namedview
     pagecolor="#ffffff"
     bordercolor="#666666"
     borderopacity="1"
     objecttolerance="10"
     gridtolerance="10"
     guidetolerance="10"
     inkscape:pageopacity="0"
     inkscape:pageshadow="2"
     inkscape:window-width="660"
     inkscape:window-height="480"
     id="namedview5"
     showgrid="false"
     inkscape:zoom="8.4285714"
     inkscape:cx="14"
     inkscape:cy="14"
     inkscape:window-x="0"
     inkscape:window-y="0"
     inkscape:window-maximized="0"
     inkscape:current-layer="Layer_1" /><path
     d="M24.253,8.756C24.689,17.08,18.297,24.182,9.97,24.62c-3.122,0.162-6.219-0.646-8.861-2.32  c2.703,0.179,5.376-0.648,7.508-2.321c-2.072-0.247-3.818-1.661-4.489-3.638c0.801,0.128,1.62,0.076,2.399-0.155  C4.045,15.72,2.215,13.6,2.115,11.077c0.688,0.275,1.426,0.407,2.168,0.386c-2.135-1.65-2.729-4.621-1.394-6.965  C5.575,7.816,9.54,9.84,13.803,10.071c-0.842-2.739,0.694-5.64,3.434-6.482c2.018-0.623,4.212,0.044,5.546,1.683  c1.186-0.213,2.318-0.662,3.329-1.317c-0.385,1.256-1.247,2.312-2.399,2.942c1.048-0.106,2.069-0.394,3.019-0.851  C26.275,7.229,25.39,8.196,24.253,8.756z"
     id="path2"
     style="fill:#a1a1a1;fill-opacity:1" /></svg>